<svg xmlns="http://www.w3.org/2000/svg" xmlns:xlink="http://www.w3.org/1999/xlink" viewBox="0 0 471.06 438.86"><defs><style>.cls-1{fill:url(#linear-gradient);}.cls-2{fill:url(#linear-gradient-2);}.cls-3{fill:url(#linear-gradient-3);}.cls-4{fill:url(#linear-gradient-4);}.cls-5{fill:url(#linear-gradient-5);}.cls-6{fill:url(#linear-gradient-6);}.cls-7{fill:url(#linear-gradient-7);}.cls-8{fill:url(#linear-gradient-8);}.cls-9{fill:url(#linear-gradient-9);}</style><linearGradient id="linear-gradient" x1="-18.05" y1="103.49" x2="57.86" y2="-27.99" gradientUnits="userSpaceOnUse"><stop offset="0" stop-color="#5596e6"/><stop offset="1" stop-color="#af6ee8"/></linearGradient><linearGradient id="linear-gradient-2" x1="-8.6" y1="109.02" x2="67.46" y2="-22.73" xlink:href="#linear-gradient"/><linearGradient id="linear-gradient-3" x1="17.31" y1="124" x2="93.43" y2="-7.85" xlink:href="#linear-gradient"/><linearGradient id="linear-gradient-4" x1="52.73" y1="144.47" x2="128.89" y2="12.56" xlink:href="#linear-gradient"/><linearGradient id="linear-gradient-5" x1="88.1" y1="164.9" x2="164.29" y2="32.93" xlink:href="#linear-gradient"/><linearGradient id="linear-gradient-6" x1="52.67" y1="144.43" x2="128.83" y2="12.52" xlink:href="#linear-gradient"/><linearGradient id="linear-gradient-7" x1="52.68" y1="144.44" x2="128.84" y2="12.53" xlink:href="#linear-gradient"/><linearGradient id="linear-gradient-8" x1="52.73" y1="144.47" x2="128.89" y2="12.56" xlink:href="#linear-gradient"/><linearGradient id="linear-gradient-9" x1="52.67" y1="144.46" x2="128.86" y2="12.49" xlink:href="#linear-gradient"/><symbol id="Blue_Purple" data-name="Blue / Purple" viewBox="0 0 163.69 152.5"><path class="cls-1" d="M18.84,60.8a2.93,2.93,0,0,1-1.6-.4l-15.6-9A3.18,3.18,0,0,1,.44,47a3.18,3.18,0,0,1,4.4-1.2l15.6,9a3.18,3.18,0,0,1,1.2,4.4A3.31,3.31,0,0,1,18.84,60.8Z"/><path class="cls-2" d="M45.44,34.2a3.31,3.31,0,0,1-2.8-1.6l-9-15.6a3.22,3.22,0,1,1,5.6-3.2l9,15.6A3.16,3.16,0,0,1,47,33.8,4.19,4.19,0,0,1,45.44,34.2Z"/><path class="cls-3" d="M81.84,24.4a3.22,3.22,0,0,1-3.2-3.2V3.2A3.22,3.22,0,0,1,81.84,0,3.29,3.29,0,0,1,85,3.2v18A3.16,3.16,0,0,1,81.84,24.4Z"/><path class="cls-4" d="M118.24,34.2a2.93,2.93,0,0,1-1.6-.4,3.18,3.18,0,0,1-1.2-4.4l9-15.6A3.22,3.22,0,1,1,130,17l-9,15.6A3.31,3.31,0,0,1,118.24,34.2Z"/><path class="cls-5" d="M144.84,60.8a3.31,3.31,0,0,1-2.8-1.6,3.16,3.16,0,0,1,1.2-4.4l15.6-9a3.22,3.22,0,0,1,3.2,5.6l-15.6,9A2.93,2.93,0,0,1,144.84,60.8Z"/><path class="cls-6" d="M61.24,146.8a17,17,0,0,1-8.6-2.2c-7.3-4.2-10.8-13.5-9.8-26.4.9-12,5.7-25.9,13.3-39.1h0c7.6-13.2,17.3-24.2,27.2-31.1,10.6-7.3,20.5-9,27.7-4.8s10.8,13.6,9.8,26.4c-.9,12-5.7,25.9-13.3,39.1C94,132.1,75.44,146.8,61.24,146.8Zm41.2-99.3c-4.4,0-9.7,2-15.4,5.9-9.1,6.3-18.1,16.6-25.3,28.9h0c-7.1,12.4-11.6,25.3-12.4,36.4-.8,10.1,1.6,17.5,6.5,20.3a10.6,10.6,0,0,0,5.6,1.4c11.5,0,28.5-14.2,40.5-34.9,7.1-12.4,11.5-25.3,12.4-36.4.8-10.1-1.6-17.5-6.5-20.3A10.54,10.54,0,0,0,102.44,47.5Z"/><path class="cls-7" d="M81.74,152.5a57.72,57.72,0,0,1-24.5-5.4,58.53,58.53,0,1,1,24.5,5.4Zm.2-110.6a52,52,0,1,0,21.8,4.8A51.46,51.46,0,0,0,81.94,41.9Z"/><path class="cls-8" d="M98.94,139.5c-11.7,0-24.9-3.5-37.2-10.6h0C33.74,112.8,20,84,31.24,64.7s42.9-21.8,70.9-5.7c27.8,16.1,41.5,44.9,30.4,64.2C126.34,133.9,113.74,139.5,98.94,139.5Zm-34-16.3c24.9,14.4,52.7,12.9,62-3.3s-3.3-41-28.2-55.3-52.7-12.9-62,3.3,3.3,41,28.2,55.3Z"/><path class="cls-9" d="M57.14,135.1c-12.4,0-21.6-4.2-26-11.9-9.3-16.1,5.6-41.7,34.1-58.1,13.3-7.7,27.4-12,39.8-12.4,13.2-.3,22.9,3.9,27.5,11.9,9.3,16.2-5.6,41.7-34.1,58.1-13.3,7.7-27.4,12-39.8,12.4Zm49.4-75.9h-1.3c-11.4.3-24.4,4.4-36.8,11.6-24.4,14.1-39,36.6-31.7,49.2,3.4,5.9,11.1,8.9,21.7,8.7,11.4-.4,24.4-4.5,36.8-11.6,24.4-14.1,39-36.6,31.7-49.2C123.64,62.3,116.44,59.2,106.54,59.2Z"/></symbol></defs><title>Asset 1</title><g id="Layer_2" data-name="Layer 2"><g id="Layer_1-2" data-name="Layer 1"><use id="Blue_Purple-3" data-name="Blue / Purple" width="163.69" height="152.5" transform="scale(2.88)" xlink:href="#Blue_Purple"/></g></g></svg>